<svg width="33" height="27" fill="none" xmlns="http://www.w3.org/2000/svg"><path d="M10.376 27C22.828 27 29.64 16.613 29.64 7.605c0-.291 0-.59-.017-.882A13.83 13.83 0 0033 3.195a13.319 13.319 0 01-3.887 1.07A6.814 6.814 0 0032.09.498a13.4 13.4 0 01-4.295 1.652 6.742 6.742 0 00-9.577-.3 6.85 6.85 0 00-1.956 6.517A19.178 19.178 0 012.305 1.243C.51 4.36 1.429 8.34 4.397 10.345a6.644 6.644 0 01-3.07-.856v.085c0 3.246 2.27 6.037 5.435 6.68a6.692 6.692 0 01-3.054.12 6.792 6.792 0 006.328 4.735A13.612 13.612 0 010 23.943 19.166 19.166 0 0010.376 27z" fill="#163d5c"/></svg>