<svg width="25" height="25" fill="none" xmlns="http://www.w3.org/2000/svg"><path d="M23.09.013H1.833C.824.013 0 .819 0 1.813v21.375c0 .993.823 1.8 1.834 1.8h21.255c1.03 0 1.853-.825 1.853-1.8V1.813c0-.994-.823-1.8-1.853-1.8zm-15.7 21.3H3.687V9.388h3.705v11.925zM5.539 7.756A2.154 2.154 0 013.387 5.6c0-1.181.954-2.156 2.151-2.156 1.18 0 2.152.956 2.152 2.156a2.154 2.154 0 01-2.152 2.156zm15.718 13.557H17.57v-5.794c0-1.388-.02-3.15-1.928-3.15-1.927 0-2.207 1.519-2.207 3.056v5.906H9.71V9.388h3.555v1.63h.056c.505-.937 1.703-1.93 3.5-1.93 3.741 0 4.434 2.456 4.434 5.68v6.545z" fill="#163d5c"/></svg>